<svg width="279" height="87" viewBox="0 0 279 87" fill="none" xmlns="http://www.w3.org/2000/svg">
<path d="M10.0625 23.75L10.25 22.625C10.2083 22.2917 10.25 22 10.375 21.75C10.5417 21.4583 10.6458 21.25 10.6875 21.125C10.7292 20.9583 10.7292 20.8333 10.6875 20.75C10.6875 20.625 10.6875 20.5208 10.6875 20.4375L10.9375 19.75L10.8125 18.5625C10.8125 16.9375 10.9375 15.7917 11.1875 15.125C11.4375 14.4583 11.5625 13.9583 11.5625 13.625C11.7708 13.5 11.9792 13.3542 12.1875 13.1875C12.3958 12.9792 12.625 12.8333 12.875 12.75C13.0833 12.8333 13.2708 12.9167 13.4375 13C13.6042 13.0417 13.7917 13.1667 14 13.375C14.25 13.5833 14.5 14.0833 14.75 14.875C15 15.625 15.25 16.4375 15.5 17.3125C15.7917 18.1875 16.0625 19.0625 16.3125 19.9375C16.6042 20.7708 16.9375 21.3958 17.3125 21.8125C17.3125 22.9375 17.5 23.7292 17.875 24.1875C17.8333 24.2708 17.8125 24.3958 17.8125 24.5625C17.8125 24.6875 17.875 25.0417 18 25.625C18.6667 28.5833 19.1667 30.2292 19.5 30.5625V30.9375L20.25 33.625C20.375 34.125 20.4792 34.625 20.5625 35.125C20.6458 35.5833 20.875 36 21.25 36.375C21.25 37.125 21.4583 37.7292 21.875 38.1875C21.9583 38.6458 22.0417 39.2083 22.125 39.875C22.25 40.5417 22.4792 41.0417 22.8125 41.375C23.0208 43.0833 23.2917 44.1667 23.625 44.625C24 45.0417 24.1667 45.4167 24.125 45.75C24 46.2083 24.0833 46.6875 24.375 47.1875C24.6667 47.6875 24.8125 48.0833 24.8125 48.375C24.8542 48.6667 24.9792 48.9167 25.1875 49.125C25.6458 49.125 26.0417 48.9375 26.375 48.5625C26.75 48.1875 26.9792 47.7708 27.0625 47.3125C27.1875 47.3125 27.4167 47.0833 27.75 46.625C29.4583 43.9583 30.5625 42.5 31.0625 42.25C31.1458 41.7917 31.3125 41.4583 31.5625 41.25C31.8542 41 31.9792 40.6458 31.9375 40.1875C32.1042 40.0625 32.2292 39.9375 32.3125 39.8125C32.4375 39.6458 32.6042 39.5208 32.8125 39.4375C33.1042 38.5625 33.5417 37.9375 34.125 37.5625C34.1667 37.4375 34.1875 37.3125 34.1875 37.1875C34.2292 37.0208 34.2917 36.875 34.375 36.75C34.625 36.6667 34.7917 36.5417 34.875 36.375C35 36.1667 35.1667 36.0208 35.375 35.9375V35.875C35.375 35.625 35.4792 35.4375 35.6875 35.3125C35.9375 35.1458 36.1042 34.9792 36.1875 34.8125C36.3125 34.6042 36.4167 34.2917 36.5 33.875C36.625 33.4583 36.7708 33.2083 36.9375 33.125L37.25 33C37.5417 32.6667 37.75 32.2708 37.875 31.8125C38.0417 31.3125 38.3125 30.8958 38.6875 30.5625V30.1875H38.9375C39.0208 30.1042 39.0625 29.9583 39.0625 29.75C39.1042 29.5417 39.2292 29.4167 39.4375 29.375L39.375 29.25C39.375 28.6667 39.5417 28.2083 39.875 27.875C40.2083 27.5 40.3542 26.9792 40.3125 26.3125L40.8125 25.9375C40.8958 25.8542 40.9375 25.75 40.9375 25.625C40.9375 25.4583 40.9583 25.3333 41 25.25L41.625 24.3125C41.8333 23.9792 42 23.625 42.125 23.25C42.25 22.8333 42.5 22.5208 42.875 22.3125V22.0625C42.875 21.7292 42.9792 21.4167 43.1875 21.125C43.4375 20.7917 43.6042 20.5208 43.6875 20.3125C43.7708 20.0625 43.8125 19.8542 43.8125 19.6875C43.8542 19.4792 43.8958 19.3333 43.9375 19.25C44.0208 19.1667 44.0833 19.125 44.125 19.125C44.375 19.125 44.4583 18.9792 44.375 18.6875C44.2917 18.3958 44.3542 18.25 44.5625 18.25C44.8125 18.25 44.9375 18.1458 44.9375 17.9375L45.1875 16.25C45.1875 16 45.1667 15.8125 45.125 15.6875C45.375 15.5208 45.5 15.3333 45.5 15.125C45.5 14.9167 45.4583 14.7708 45.375 14.6875C45.4167 14.5208 45.5 14.4167 45.625 14.375C45.75 14.2917 45.8542 14.2083 45.9375 14.125V13.875C45.9375 13.5417 46.0625 13.2917 46.3125 13.125C46.6042 12.9167 46.8542 12.7292 47.0625 12.5625C47.3542 12.6042 47.5833 12.7292 47.75 12.9375C47.9167 13.1042 48.1042 13.2917 48.3125 13.5C48.1042 13.75 48 14.2083 48 14.875C48 15.5 47.9167 16 47.75 16.375C47.625 16.75 47.5625 17.1042 47.5625 17.4375C47.5625 17.7708 47.625 18.0625 47.75 18.3125C47.875 18.5208 47.9375 18.7292 47.9375 18.9375L47.8125 19.875L47.9375 21.8125C47.9375 22.1875 47.8958 22.4792 47.8125 22.6875C47.8542 22.9375 47.9167 23.1667 48 23.375C48.0833 23.5417 48.1458 23.75 48.1875 24C48.2292 24.2083 48.2292 24.4375 48.1875 24.6875C48.1875 24.8958 48.1875 25.1042 48.1875 25.3125L48.5625 26.5C48.5625 26.5833 48.5417 26.625 48.5 26.625C48.4583 26.625 48.4375 26.7083 48.4375 26.875C48.4375 27.0417 48.5208 27.4792 48.6875 28.1875C48.8958 28.8542 49 29.4792 49 30.0625V30.1875L48.875 30.25L49.0625 30.9375L48.875 31.8125L49.25 33.0625L49.125 34.5C49.125 34.625 49.2083 35.1042 49.375 35.9375L49.3125 36.875C49.3125 37.2917 49.375 37.6042 49.5 37.8125C49.6667 37.9792 49.7917 38.2292 49.875 38.5625L50 39.9375C50.0417 40.1458 50.0833 40.3542 50.125 40.5625C50.1667 40.7292 50.2083 40.9583 50.25 41.25C50.2917 41.5 50.2917 41.7917 50.25 42.125C50.2083 42.4167 50.1875 42.7917 50.1875 43.25C50.1875 43.7083 50.2917 44.3542 50.5 45.1875C50.625 46.9375 50.8125 48.3333 51.0625 49.375C51.3542 50.375 51.5 51.0833 51.5 51.5C51.5 51.875 51.4167 52.2083 51.25 52.5C51.625 53.1667 51.7917 53.9375 51.75 54.8125C51.75 55.6875 51.7917 56.375 51.875 56.875C52 57.3333 52.1042 57.6875 52.1875 57.9375C52.2708 58.1458 52.3125 58.4375 52.3125 58.8125C52.3125 59.1458 52.375 59.5625 52.5 60.0625C52.6667 60.5208 52.7708 60.9792 52.8125 61.4375L53.3125 61.5C53.9792 61.5 54.5625 61.4167 55.0625 61.25C55.6042 61.0833 55.9583 60.9375 56.125 60.8125C56.2917 60.6875 56.4792 60.6458 56.6875 60.6875C56.8958 60.6875 57.0625 60.6875 57.1875 60.6875L58 60.5625C58.2083 60.5625 58.3542 60.6458 58.4375 60.8125C58.5208 60.9375 58.6667 61.0208 58.875 61.0625C58.9583 61.1458 59 61.3125 59 61.5625C59 61.7708 58.9583 62 58.875 62.25C58.5 62.5 58.2083 62.625 58 62.625C57.8333 62.625 57.7083 62.5833 57.625 62.5C57.2083 62.875 56.9167 63.0833 56.75 63.125C56.625 63.125 56.3333 63.125 55.875 63.125L55.625 63.1875C55.3333 63.1875 55.0417 63.25 54.75 63.375C54.5 63.5 54.2292 63.5833 53.9375 63.625L52.9375 63.75C52.5625 63.875 52.2083 64.0625 51.875 64.3125C51.5417 64.5208 51.1667 64.625 50.75 64.625L49.375 64.5C49.125 64.5 48.6875 64.625 48.0625 64.875L47.3125 64.8125C46.9792 64.8125 46.625 64.8958 46.25 65.0625C45.9167 65.2292 45.5417 65.3125 45.125 65.3125H44.8125C44.3958 64.9792 44.1875 64.625 44.1875 64.25C44.1875 63.875 44.2292 63.5625 44.3125 63.3125C44.5625 63.1042 45.25 62.9167 46.375 62.75C47.5417 62.5833 48.3125 62.375 48.6875 62.125C48.6042 61.8333 48.5625 61.5625 48.5625 61.3125C48.6042 61.0208 48.5833 60.7083 48.5 60.375C48.4583 60.0417 48.4167 59.8542 48.375 59.8125C48.3333 59.7292 48.3125 59.5208 48.3125 59.1875C48.3125 58.8542 48.2292 58.5 48.0625 58.125C47.9375 57.75 47.8333 57.375 47.75 57C47.6667 56.5833 47.625 56.125 47.625 55.625C47.6667 55.0833 47.6667 54.5625 47.625 54.0625L47.375 52.5L47.5 52.0625C47.5 51.6042 47.3958 51.0417 47.1875 50.375C47.0208 49.7083 46.8958 49.2292 46.8125 48.9375C46.7708 48.6042 46.7708 48.375 46.8125 48.25C46.8542 48.0833 46.875 47.9167 46.875 47.75C46.875 47.5833 46.8125 47.4375 46.6875 47.3125C46.7708 47.1458 46.8125 46.9792 46.8125 46.8125C46.8125 46.6042 46.8542 46.4375 46.9375 46.3125C46.6875 45.2708 46.5417 44.2292 46.5 43.1875C46.5 42.1042 46.4375 41.0625 46.3125 40.0625L46.0625 39.3125C46.0208 39.1458 46 38.9792 46 38.8125C46.0417 38.6042 46.0625 38.4167 46.0625 38.25L45.8125 37.125L45.9375 36.625V36.0625C45.9375 34.9375 45.8333 34.3125 45.625 34.1875C45.75 34.0625 45.7708 33.875 45.6875 33.625C45.6458 33.3333 45.6875 33.125 45.8125 33C45.6875 32.7083 45.625 32.375 45.625 32L45.6875 30.25C45.6875 29.9583 45.625 29.5208 45.5 28.9375C45.4167 28.3125 45.375 27.9167 45.375 27.75C45.4167 27.5833 45.4167 27.375 45.375 27.125L44.9375 26.3125V25.5625C44.9375 25.1875 44.8542 24.9375 44.6875 24.8125H44.625C44.375 24.7708 44.125 25 43.875 25.5C43.2917 25.8333 43 26.1667 43 26.5C43 26.8333 42.9375 27 42.8125 27C42.6875 27 42.5833 27.0417 42.5 27.125C42.4167 27.2083 42.3958 27.2917 42.4375 27.375C42.4792 27.4583 42.4167 27.625 42.25 27.875C42.0833 28.0833 41.9792 28.2917 41.9375 28.5C41.8958 28.6667 41.8333 28.8333 41.75 29C41.6667 29.125 41.5625 29.25 41.4375 29.375C41.3542 29.4583 41.2708 29.5625 41.1875 29.6875C41.1458 29.8125 41.125 29.9583 41.125 30.125C41.1667 30.2917 41.1875 30.4583 41.1875 30.625C41.1875 30.7917 41.0625 31.0417 40.8125 31.375C40.5625 31.7083 40.3958 32.0208 40.3125 32.3125C40.1875 32.3542 40.0833 32.4167 40 32.5C39.9583 32.5417 39.8333 32.5625 39.625 32.5625C39.5417 33.2292 39.3333 33.75 39 34.125C38.6667 34.5 38.3542 34.9583 38.0625 35.5C37.8542 35.6667 37.5833 35.8125 37.25 35.9375C37.2083 36.0625 37.125 36.25 37 36.5C36.9167 36.7083 36.7708 37.0208 36.5625 37.4375C36.3958 37.8125 36.3542 38.1042 36.4375 38.3125C36.3958 38.3958 36.3333 38.4375 36.25 38.4375C36.1667 38.4375 36.0833 38.4792 36 38.5625C35.9167 38.6458 35.875 38.7708 35.875 38.9375C35.875 39.0625 35.75 39.1667 35.5 39.25C35.0417 39.4583 34.8333 39.6875 34.875 39.9375C34.9583 40.1875 34.8958 40.4583 34.6875 40.75C34.5625 41.2917 34.3125 41.7083 33.9375 42C33.5625 42.25 33.3125 42.4583 33.1875 42.625C33.1042 42.7917 33.0417 42.9583 33 43.125C32.9583 43.25 32.8958 43.3958 32.8125 43.5625L32.5625 43.6875C31.9792 44.8542 31.625 45.5 31.5 45.625C31.3333 45.7917 30.9583 46.3125 30.375 47.1875L29.6875 48.25C29.4792 48.5417 29.375 48.7083 29.375 48.75C28.4167 49.0417 27.8333 49.8125 27.625 51.0625C27.125 51.3542 26.7708 51.6042 26.5625 51.8125C25.7292 53.6042 24.9583 54.5 24.25 54.5C23.7917 54.5 23.4583 54.4167 23.25 54.25C23.0833 54.0417 22.8542 53.8958 22.5625 53.8125C22.3125 53.1042 22.0833 52.6667 21.875 52.5V52C21.875 51.4583 21.8125 51.1042 21.6875 50.9375C21.5625 50.7708 21.4167 50.4583 21.25 50L20.625 46.875C20.5833 46.6667 20.4792 46.5208 20.3125 46.4375C20.1458 46.3125 20.0417 46.0208 20 45.5625C19.9583 45.0625 19.8333 44.75 19.625 44.625L19.6875 44.25C19.6875 43.8333 19.4792 43.1458 19.0625 42.1875C18.6875 41.2292 18.4167 40.7083 18.25 40.625C18.2917 40.5833 18.3125 40.4375 18.3125 40.1875C18.3125 39.9375 18.2292 39.4583 18.0625 38.75C17.8958 38 17.7292 37.4583 17.5625 37.125C17.3958 36.7917 17.2917 36.4375 17.25 36.0625C17.2083 35.6875 17.125 35.2917 17 34.875C16.875 34.4583 16.8125 34.125 16.8125 33.875V33.8125L16.5625 33.5L16.4375 32.625C16.3958 32.4167 16.3333 32.1875 16.25 31.9375C16.1667 31.6875 16.0833 31.4375 16 31.1875L15.875 30.3125C15.75 30.0625 15.6042 29.8333 15.4375 29.625C15.2708 29.375 15.1042 29.125 14.9375 28.875C14.9375 28.5417 14.9375 28.2083 14.9375 27.875C14.9375 27.5417 14.8333 27.25 14.625 27V26.5C14.625 25.6667 14.375 25.25 13.875 25.25C13.75 25.25 13.6875 25.375 13.6875 25.625C13.7292 25.8333 13.75 25.9792 13.75 26.0625V26.1875C13.5833 26.3125 13.5 26.6042 13.5 27.0625C13.5 27.4792 13.625 27.7708 13.875 27.9375C13.6667 28.4375 13.5625 29.0417 13.5625 29.75C13.6042 30.4583 13.5833 31.1042 13.5 31.6875L13.375 32.5625L13.5 33.1875L13.25 34.3125L13.375 35.625V36.5C13.375 36.7917 13.3333 37.0625 13.25 37.3125L13 38.0625C12.9167 38.4375 12.8958 38.8333 12.9375 39.25C12.9792 39.625 12.9583 39.9792 12.875 40.3125C12.7917 40.6042 12.75 40.7917 12.75 40.875C12.6667 41.2083 12.625 41.4583 12.625 41.625V42.1875C12.625 42.5625 12.5625 42.9375 12.4375 43.3125C12.3542 43.6875 12.2917 44.0833 12.25 44.5C12.2083 44.875 12.1875 45.25 12.1875 45.625C12.2292 46 12.2083 46.3542 12.125 46.6875C12.0833 46.9792 12.0417 47.1875 12 47.3125C12 47.4375 11.9792 47.5625 11.9375 47.6875C11.9375 47.7708 11.9375 47.875 11.9375 48V48.625L11.6875 49.875C11.6042 50.125 11.5625 50.375 11.5625 50.625C11.6042 50.875 11.625 51.2083 11.625 51.625C11.625 52 11.5833 52.2917 11.5 52.5C11.1667 53.0417 11.0208 53.625 11.0625 54.25C11.1458 54.875 11.1042 55.4792 10.9375 56.0625C10.7708 56.6042 10.6875 57.3333 10.6875 58.25C10.6875 59.1667 10.5833 60.1458 10.375 61.1875C10.9167 61.8125 11.3125 62.125 11.5625 62.125C11.8542 62.125 12 62.25 12 62.5C12 62.5833 12.0833 62.6667 12.25 62.75C12.2083 63.0417 12.1458 63.25 12.0625 63.375C11.9792 63.4583 11.9583 63.6667 12 64H11.875L11.4375 64.125H11.3125C11.2708 64.0833 11.2083 64.0625 11.125 64.0625L10.9375 64.375C10.7708 64.2917 10.4583 64.25 10 64.25C9.58333 64.25 9.3125 64.3333 9.1875 64.5C8.85417 64.3333 8.41667 64.25 7.875 64.25C7.375 64.25 7.08333 64.3542 7 64.5625C6.95833 64.7292 6.83333 64.8333 6.625 64.875C6.58333 64.8333 6.5 64.8125 6.375 64.8125L3.5625 65.1875H2.375C1.66667 65.1875 1.27083 65.125 1.1875 65C1.0625 64.8333 0.979167 64.7292 0.9375 64.6875C0.895833 64.6042 0.791667 64.5417 0.625 64.5C0.583333 64.4583 0.5625 64.3958 0.5625 64.3125L0.8125 63.8125C0.6875 63.6875 0.625 63.5833 0.625 63.5C0.625 63.375 0.666667 63.2292 0.75 63.0625C1.29167 62.6875 1.875 62.5 2.5 62.5C3.16667 62.5 3.79167 62.375 4.375 62.125C4.5 62.1667 4.70833 62.1875 5 62.1875C5.33333 62.1875 5.625 62.1458 5.875 62.0625C6.125 61.9792 6.375 61.8958 6.625 61.8125C6.66667 61.6458 6.6875 61.4375 6.6875 61.1875L6.625 59.8125L6.875 58L6.75 57.0625C6.75 56.8542 6.79167 56.5625 6.875 56.1875C7 55.7708 7.04167 55.4375 7 55.1875C7 54.9375 7.02083 54.6875 7.0625 54.4375C7.10417 54.1458 7.14583 53.8958 7.1875 53.6875C7.27083 53.4792 7.35417 53.25 7.4375 53C7.52083 52.75 7.5625 52.2708 7.5625 51.5625C7.5625 50.8125 7.66667 50.0833 7.875 49.375C8.125 48.625 8.25 47.8958 8.25 47.1875L8.125 46.4375C8.125 46.3125 8.14583 46.2292 8.1875 46.1875C8.27083 46.1458 8.33333 45.9792 8.375 45.6875C8.41667 45.3958 8.4375 45.0417 8.4375 44.625C8.47917 44.1667 8.54167 43.6667 8.625 43.125C8.75 42.5417 8.8125 42.1042 8.8125 41.8125L8.6875 41.125C8.6875 40.9167 8.70833 40.7083 8.75 40.5C9.08333 39.5833 9.25 38.625 9.25 37.625V36.75C9.25 36.625 9.22917 36.5 9.1875 36.375C9.4375 35.625 9.5625 35.1042 9.5625 34.8125V33.875L9.8125 32.75L9.6875 32.0625L9.8125 31.3125L9.6875 30.5L9.9375 29.375L9.875 27.8125L10.1875 25.625C10.1875 25.5417 10.1458 25.4583 10.0625 25.375C10.0208 25.2917 10.0208 25.2292 10.0625 25.1875C10.1042 25.1042 10.125 25 10.125 24.875L10.0625 23.75ZM63.4375 50.625L65.4375 50.25C65.7708 50.25 65.9792 50.2292 66.0625 50.1875C66.1875 50.1042 66.6458 49.9583 67.4375 49.75C68.2292 49.5417 68.9792 49.4375 69.6875 49.4375H71.1875C71.6875 49.4375 72.0625 49.5208 72.3125 49.6875C72.5625 49.8125 72.7917 49.875 73 49.875C73.2083 49.875 73.5625 49.6875 74.0625 49.3125C74.1042 49.1458 74.125 48.9792 74.125 48.8125V48.25C74.125 47.2083 74.0417 46.2917 73.875 45.5C73.75 44.6667 73.7083 43.7708 73.75 42.8125C73.8333 41.8542 73.7708 41.2708 73.5625 41.0625C73.3958 40.8125 73.2708 40.625 73.1875 40.5C73.1042 40.3333 73.0833 40.1667 73.125 40C73.1667 39.8333 73.1042 39.6458 72.9375 39.4375C72.8125 39.1875 72.75 39.0208 72.75 38.9375C72.7917 38.8125 72.7708 38.7083 72.6875 38.625C72.6458 38.5417 72.5833 38.5 72.5 38.5C72.4583 38.4583 72.3958 38.3958 72.3125 38.3125C72.2708 38.2292 72.25 38.1667 72.25 38.125C72.2917 38.0833 72.2708 38 72.1875 37.875C72.1458 37.75 72.0417 37.6458 71.875 37.5625C71.75 37.4375 71.6667 37.2708 71.625 37.0625C71.0833 36.8125 70.625 36.3958 70.25 35.8125C70.0417 35.7708 69.8125 35.7708 69.5625 35.8125C69.3542 35.8125 69.1458 35.7917 68.9375 35.75C68.7708 35.6667 68.625 35.6042 68.5 35.5625C68.375 35.4792 68.2292 35.4375 68.0625 35.4375L66.625 35.8125C66.5833 35.8125 66.4375 35.7708 66.1875 35.6875C65.9792 35.7292 65.875 35.875 65.875 36.125C65.875 36.3333 65.8333 36.5 65.75 36.625C65.375 36.625 65.1875 36.7708 65.1875 37.0625C64.9792 37.0625 64.8333 37.125 64.75 37.25C64.6667 37.375 64.5 37.3958 64.25 37.3125C64.0833 37.6042 63.9167 37.8958 63.75 38.1875C63.5833 38.4792 63.3542 38.7083 63.0625 38.875C62.9375 39.5417 62.875 40.1667 62.875 40.75C62.875 41.3333 63 41.75 63.25 42C63.5 42.25 63.625 42.5208 63.625 42.8125C63.625 43.0625 63.5208 43.3958 63.3125 43.8125C63.1042 44.1875 62.8542 44.375 62.5625 44.375C62.2708 44.375 62.0625 44.2917 61.9375 44.125C61.8542 43.9583 61.7708 43.7708 61.6875 43.5625C61.6458 43.3542 61.6042 43.1458 61.5625 42.9375C61.5208 42.6875 61.375 42.4375 61.125 42.1875C61.25 42.1875 61.3125 42.0833 61.3125 41.875C61.3125 41.6667 61.25 41.4792 61.125 41.3125C61 41.1458 60.9375 40.6875 60.9375 39.9375C60.9375 39.1875 61.1042 38.7083 61.4375 38.5C61.3958 38.5 61.375 38.4583 61.375 38.375L61.5 37.8125C61.4583 37.8125 61.4375 37.7708 61.4375 37.6875L61.6875 37.3125L61.625 37.1875C61.6667 37.0208 61.75 36.9583 61.875 37C62.0417 37 62.1667 36.9583 62.25 36.875C62.3333 36.75 62.5208 36.3958 62.8125 35.8125C63.1042 35.7292 63.2917 35.6042 63.375 35.4375C63.5 35.2292 63.6667 35.0417 63.875 34.875C64.2083 34.75 64.4375 34.6042 64.5625 34.4375C64.6875 34.2292 64.8333 34.0833 65 34C65.2083 33.9167 65.4167 33.8542 65.625 33.8125C65.875 33.7708 66.0417 33.625 66.125 33.375L66.3125 33.4375C66.5208 33.4375 66.6667 33.375 66.75 33.25C66.8333 33.0833 67.0625 33 67.4375 33C67.8542 33 68.0833 32.9583 68.125 32.875C68.1667 32.7917 68.3333 32.75 68.625 32.75C68.9167 32.75 69.3542 32.8958 69.9375 33.1875C70.5625 33.4792 70.9375 33.625 71.0625 33.625H71.25C71.5417 33.9583 71.9375 34.1667 72.4375 34.25C73.0208 34.7083 73.5833 35.1458 74.125 35.5625C74.7083 35.9375 75.1667 36.4375 75.5 37.0625C75.5833 37.1458 75.6042 37.2083 75.5625 37.25C75.5625 37.2917 75.625 37.3958 75.75 37.5625C75.875 37.6875 76 37.8542 76.125 38.0625C76.25 38.2708 76.375 38.4583 76.5 38.625C76.625 38.75 76.6875 38.8125 76.6875 38.8125C76.7292 38.7708 76.75 38.9167 76.75 39.25L76.8125 39.3125L77 39.4375C77.25 40.0625 77.4583 41.0208 77.625 42.3125C77.7917 43.6042 77.875 44.3542 77.875 44.5625C77.875 44.7292 77.8958 44.875 77.9375 45C78.0208 45.0833 78.1042 45.2917 78.1875 45.625C78.2708 45.9167 78.2917 46.3542 78.25 46.9375C78.25 47.4792 78.2708 47.9375 78.3125 48.3125C78.3958 48.6458 78.4583 48.9375 78.5 49.1875C78.5833 49.3958 78.625 49.625 78.625 49.875L78.4375 50.8125L78.625 54.875L78.4375 55.75L78.5 57.125L78.3125 59.1875L78.75 61.1875L78.375 62.875L78.625 64.1875C78.625 64.3542 78.5625 64.4792 78.4375 64.5625C78.8542 64.8958 79.3542 65.0625 79.9375 65.0625L81.875 64.6875H83.625C83.7083 64.7708 83.75 64.8542 83.75 64.9375C83.75 65.0208 83.7917 65.1042 83.875 65.1875C84 65.2708 84.1042 65.3333 84.1875 65.375C84.2708 65.4167 84.3125 65.5208 84.3125 65.6875C84.3125 65.8542 84.2708 66 84.1875 66.125C84.1042 66.2083 84.1042 66.3542 84.1875 66.5625C83.9375 66.6042 83.7708 66.7083 83.6875 66.875C83.6458 67 83.5417 67.1042 83.375 67.1875C83.25 67.2708 83.0417 67.3125 82.75 67.3125C82.4583 67.3125 82.1042 67.4167 81.6875 67.625C81.5208 67.5833 81.3125 67.5625 81.0625 67.5625L80.3125 67.375C80.2292 67.375 80.1667 67.4167 80.125 67.5C80.125 67.625 80.0625 67.6875 79.9375 67.6875L79.4375 67.5C79.1042 67.5 78.7708 67.5833 78.4375 67.75C78.1458 67.9167 77.9167 68 77.75 68C77.5833 68 77.375 67.9583 77.125 67.875L76.3125 68.0625C76.1875 68.0625 76.0208 67.9792 75.8125 67.8125C75.6042 67.6458 75.2917 67.4167 74.875 67.125C74.5 66.8333 74.3125 66.4375 74.3125 65.9375L74.4375 65.0625L74.1875 64.375L74.4375 60.25L74.375 58.5C74.375 58.2083 74.1458 58.0625 73.6875 58.0625C73.5625 58.0625 73.4167 58.125 73.25 58.25C73.125 58.375 72.9792 58.4792 72.8125 58.5625C72.6875 58.6458 72.5417 58.6875 72.375 58.6875C72.25 58.6875 72.1042 58.7292 71.9375 58.8125C71.7708 58.8958 71.625 59 71.5 59.125C71.4167 59.2083 71.25 59.2708 71 59.3125C70.6667 59.7708 70.2292 60 69.6875 60H69.5C69.375 60.0417 69.2708 60.125 69.1875 60.25C69.1042 60.375 68.9792 60.5 68.8125 60.625C68.6875 60.7083 68.5 60.7917 68.25 60.875C68.0417 60.9167 67.875 61.0625 67.75 61.3125L65.625 61.6875C65.4167 61.6875 65.2292 61.625 65.0625 61.5C64.7292 61.8333 64.3958 62 64.0625 62C62.3958 62 61.2917 61.7083 60.75 61.125C60.5417 60.875 60.2917 60.6458 60 60.4375L59.8125 59.5625C59.7292 59.3542 59.625 59.1875 59.5 59.0625C59.4167 58.9375 59.3333 58.75 59.25 58.5C59.2083 58.25 59.2083 57.9792 59.25 57.6875C59.2917 57.3542 59.3125 57.0417 59.3125 56.75L59.1875 56.0625L59.4375 55.375V54.75C59.4375 54.5833 59.4792 54.4583 59.5625 54.375C59.6458 54.2917 59.7292 54.1875 59.8125 54.0625C59.8958 53.9375 59.9167 53.8125 59.875 53.6875C59.8333 53.5208 59.9375 53.3125 60.1875 53.0625C60.4375 52.8125 60.5625 52.6458 60.5625 52.5625C60.5625 52.4375 60.625 52.2708 60.75 52.0625C60.9167 51.8125 61.1667 51.6042 61.5 51.4375C61.875 51.2708 62.1667 51.0208 62.375 50.6875C62.75 50.6458 63.1042 50.625 63.4375 50.625ZM73 55.0625L73.5 55.1875C73.5833 55.1875 73.6458 55.1458 73.6875 55.0625C73.7708 54.9375 73.8542 54.875 73.9375 54.875L73.5 53.5625C73 53.4792 72.5 53.2917 72 53C71.5417 52.7083 71.1667 52.5625 70.875 52.5625L69.75 52.6875L68.125 52.625L65.625 53.0625L64.8125 52.9375C64.4792 52.9375 64.1458 53 63.8125 53.125C63.4792 53.25 63.1458 53.2708 62.8125 53.1875C62.7292 53.4375 62.5417 53.7292 62.25 54.0625C61.9583 54.3958 61.8333 54.7917 61.875 55.25C61.9583 55.7083 62 56.0833 62 56.375L61.875 56.9375C61.875 57.0208 61.8958 57.1042 61.9375 57.1875C62.0208 57.2708 62.0833 57.375 62.125 57.5C62.1667 57.5833 62.1667 57.6875 62.125 57.8125C62.125 57.9375 62.125 58.0833 62.125 58.25C62.125 58.4167 62.2083 58.6042 62.375 58.8125C62.5833 59.0208 62.7292 59.2292 62.8125 59.4375L62.875 59.375C62.9583 59.375 63.0208 59.4375 63.0625 59.5625C63.1458 59.6875 63.3542 59.75 63.6875 59.75C65.1042 59.75 66.5625 59.375 68.0625 58.625L68.875 58.25C69.2917 57.9583 69.7292 57.75 70.1875 57.625C70.6875 57.5 71.0208 57.2708 71.1875 56.9375C71.8542 55.8125 72.4375 55.1875 72.9375 55.0625H73ZM91.625 40.75C91.2917 41.75 90.8333 42.4167 90.25 42.75C90.2917 43.2083 90.4792 43.625 90.8125 44C91.1458 44.375 91.375 44.7083 91.5 45C91.6667 45.2917 91.7708 45.5 91.8125 45.625C91.8542 45.75 91.9583 45.9792 92.125 46.3125C92.3333 46.6458 92.5833 47 92.875 47.375C93.1667 47.75 93.4167 48.125 93.625 48.5C93.875 48.875 94.1042 49.2292 94.3125 49.5625L94.8125 50.25C94.9792 50.4583 95.125 50.6875 95.25 50.9375C95.375 51.1875 95.5208 51.4375 95.6875 51.6875L95.875 51.8125C96.125 52.3125 96.375 52.7917 96.625 53.25C96.9167 53.7083 97.1667 54.1667 97.375 54.625L97.625 54.75C97.7917 55.25 98 55.7083 98.25 56.125L98.5 56.25C98.75 56.875 99.0417 57.1875 99.375 57.1875C99.7083 57.1875 99.9583 56.875 100.125 56.25C100.417 54.875 100.646 54.125 100.812 54C100.896 53.8333 100.938 53.6875 100.938 53.5625C100.938 53.3958 100.979 53.2292 101.062 53.0625L101.438 52.375L101.75 51.4375C101.792 51.3125 101.833 51.2083 101.875 51.125C101.958 51 102.021 50.8542 102.062 50.6875C102.146 50.5208 102.188 50.3125 102.188 50.0625C102.188 49.7708 102.25 49.4583 102.375 49.125C102.5 48.7917 102.646 48.375 102.812 47.875C102.979 47.375 103.167 46.8958 103.375 46.4375C103.625 45.9792 103.833 45.5417 104 45.125C104.208 44.6667 104.375 44.2917 104.5 44C104.667 43.7083 104.771 43.5208 104.812 43.4375C104.896 43.3542 104.958 43.2708 105 43.1875C105.083 43.1042 105.104 43.0208 105.062 42.9375C105.062 42.8125 105.083 42.6875 105.125 42.5625C105.208 42.4375 105.333 42.3333 105.5 42.25C105.667 42.125 105.812 41.8958 105.938 41.5625C106.104 41.2292 106.25 40.7708 106.375 40.1875C106.542 39.6042 106.812 39.1667 107.188 38.875C107.604 38.5833 108.021 38.4375 108.438 38.4375C108.854 38.4375 109.146 38.5417 109.312 38.75C109.479 38.9583 109.646 39.1042 109.812 39.1875V39.375C109.812 40.1667 109.604 40.625 109.188 40.75C108.896 41.8333 108.583 42.7292 108.25 43.4375C107.958 44.1042 107.75 44.4583 107.625 44.5C107.375 45.5417 106.917 46.4792 106.25 47.3125C106.167 47.5208 106.125 47.75 106.125 48C106.125 48.5417 105.938 49.0417 105.562 49.5C105.188 49.9583 105 50.375 105 50.75V51.5C105 51.9167 104.812 52.3958 104.438 52.9375C104.438 53.3542 104.375 53.75 104.25 54.125C103.625 55.75 103.333 56.8958 103.375 57.5625C103.167 57.6458 102.938 58.1042 102.688 58.9375C102.438 59.7708 102.312 60.2708 102.312 60.4375L102.375 61.5625C102.375 61.9792 102.271 62.2708 102.062 62.4375C101.854 62.5625 101.688 62.7083 101.562 62.875C101.479 63.0417 101.396 63.2083 101.312 63.375C101.229 63.5417 101.104 63.6667 100.938 63.75C101.021 63.8333 101.062 64.0417 101.062 64.375C101.062 64.6667 100.625 65.6667 99.75 67.375C98.9167 69.0833 98.4583 70 98.375 70.125V71.125C98.25 71.2917 98.125 71.4583 98 71.625C97.9167 71.7917 97.7917 71.9583 97.625 72.125C97.4583 72.2917 97.3542 72.4792 97.3125 72.6875C97.2708 72.8958 97.1042 72.9792 96.8125 72.9375C96.6875 73.4792 96.5 73.9792 96.25 74.4375C96 74.9375 95.8333 75.3333 95.75 75.625C95.7083 75.9583 95.625 76.1458 95.5 76.1875C95.375 76.2292 95.2708 76.2917 95.1875 76.375C95.1042 76.5 95.0417 76.6042 95 76.6875C95 76.8125 94.9583 76.8542 94.875 76.8125H94.6875V76.875L94.8125 77.4375V77.625C94.2292 78.0833 93.8333 78.7917 93.625 79.75C93.2917 79.9167 93.0833 80.1042 93 80.3125C92.9167 80.5208 92.7708 80.7292 92.5625 80.9375C92.3542 81.2708 92.1042 81.5625 91.8125 81.8125C91.5208 82.0625 91.2917 82.3958 91.125 82.8125C90.9167 82.8542 90.7292 82.875 90.5625 82.875C90.3958 82.9167 90.2083 82.9792 90 83.0625C89.75 83.3958 89.4375 83.625 89.0625 83.75C88.6875 83.9167 88.375 84.2292 88.125 84.6875C87.75 84.7708 87.2917 84.9375 86.75 85.1875C86.25 85.4792 85.7708 85.6667 85.3125 85.75C85.1875 85.8333 85.0625 85.9167 84.9375 86C84.8542 86.0833 84.6875 86.1667 84.4375 86.25C84.1875 86.375 83.6458 86.4375 82.8125 86.4375C81.9792 86.4375 81.3125 86.375 80.8125 86.25C80.4375 86.375 80.0208 86.4375 79.5625 86.4375C78.3958 86.4375 77.8125 86.1667 77.8125 85.625C77.8125 85.5 77.7292 85.4167 77.5625 85.375C77.3958 85.375 77.25 85.2917 77.125 85.125V84.875H76.875C76.5833 84.625 76.4167 84.4792 76.375 84.4375C76.375 84.1875 76.3125 84.0208 76.1875 83.9375C76.0625 83.8958 76.0417 83.75 76.125 83.5C75.6667 83.2917 75.3542 82.75 75.1875 81.875C75.0208 81 74.9375 80.4792 74.9375 80.3125L75.1875 79.5L75.0625 78.8125C75.0625 78.6042 75.1667 78.2708 75.375 77.8125C75.5833 77.3542 75.7083 76.9792 75.75 76.6875C76.25 76.2708 76.5417 75.8542 76.625 75.4375C76.9583 75.3125 77.2292 75.1042 77.4375 74.8125C77.6042 74.5625 77.7917 74.3125 78 74.0625C78.4583 73.9375 78.9375 73.7917 79.4375 73.625C79.8958 73.5 80.4583 73.4375 81.125 73.4375C81.7917 73.4375 82.3542 73.625 82.8125 74C83.2708 74.4167 83.625 74.75 83.875 75C84.125 75.2917 84.4167 75.5833 84.75 75.875C84.6667 76.5417 84.625 77.0833 84.625 77.5C84.4167 77.5833 84.2292 77.6875 84.0625 77.8125C83.8958 77.9375 83.6667 78 83.375 78C83.0833 78 82.875 77.875 82.75 77.625C82.6667 77.375 82.4583 77.2083 82.125 77.125L81.6875 76C81.3958 75.9583 81.125 75.8958 80.875 75.8125C80.625 75.7292 80.2917 75.6875 79.875 75.6875C79.4583 75.6875 79.1458 75.875 78.9375 76.25C78.7292 76.625 78.4583 76.9583 78.125 77.25L78 77.5C77.875 77.5833 77.7292 77.6667 77.5625 77.75C77.3542 77.8333 77.2292 77.9583 77.1875 78.125C77.2708 78.2917 77.3125 78.5 77.3125 78.75C77.3125 79 77.2292 79.2708 77.0625 79.5625C76.8542 79.8542 76.75 80.1667 76.75 80.5C76.75 80.8333 76.8542 81.1667 77.0625 81.5C77.2292 81.875 77.3542 82.2292 77.4375 82.5625C77.8125 82.8125 78.125 83.1042 78.375 83.4375C78.5833 83.7708 78.8542 84.0417 79.1875 84.25C79.5208 84.3333 79.8333 84.3333 80.125 84.25C80.4167 84.2083 80.7292 84.1875 81.0625 84.1875L81.8125 84.4375L81.875 84.25H82.75C83.25 84.25 83.875 84.125 84.625 83.875C85.4167 83.6667 86 83.4583 86.375 83.25L86.9375 82.8125C87.2292 82.6042 87.5208 82.3958 87.8125 82.1875C88.1458 82.0208 88.4167 81.8125 88.625 81.5625C88.875 81.3542 89.0833 81.1042 89.25 80.8125C89.4583 80.5625 89.7083 80.3542 90 80.1875C90.25 79.6875 90.5625 79.125 90.9375 78.5C92.3958 76.125 93.2292 74.3125 93.4375 73.0625C93.7292 72.8542 94.0625 72.2917 94.4375 71.375C94.8125 70.5 95.1042 70 95.3125 69.875C95.4375 69.2083 95.625 68.7708 95.875 68.5625C95.9167 68.0208 96.0625 67.5208 96.3125 67.0625C96.6042 66.6042 96.7917 66.1667 96.875 65.75C96.9583 65.2917 97.0625 64.875 97.1875 64.5C97.5625 64 97.75 63.5 97.75 63C97.75 62.4583 97.6667 62.0625 97.5 61.8125C97.3333 61.5625 97.2917 61.2708 97.375 60.9375C97.25 60.8958 97.1458 60.8333 97.0625 60.75C96.9792 60.625 96.8542 60.5208 96.6875 60.4375C96.5208 60.0208 96.3125 59.6875 96.0625 59.4375C95.8542 59.1458 95.6458 58.8542 95.4375 58.5625C95.2292 58.2292 95.0833 57.9167 95 57.625C94.9583 57.2917 94.7292 57.0833 94.3125 57L94.375 56.875C94.375 56.7083 94.3333 56.6042 94.25 56.5625C94.1667 56.4792 94.1458 56.3333 94.1875 56.125C94.1458 55.9583 94 55.875 93.75 55.875C93.75 55.625 93.6667 55.4167 93.5 55.25C93.3333 55.0417 93.2083 54.875 93.125 54.75C93.0417 54.5833 93 54.4792 93 54.4375C93.0417 54.3958 93.0208 54.3333 92.9375 54.25L92.6875 54.125C92.6042 54.0417 92.5625 53.9583 92.5625 53.875C92.5625 53.75 92.5 53.5833 92.375 53.375C92.25 53.125 92.0625 52.8333 91.8125 52.5C91.6042 52.125 91.4167 51.7292 91.25 51.3125C90.9167 50.9375 90.6042 50.5833 90.3125 50.25C90.0208 49.9167 89.7917 49.5 89.625 49C89.2083 48.625 88.875 48.1875 88.625 47.6875C88.375 47.1458 88.0625 46.6667 87.6875 46.25V46.125C87.6875 45.9167 87.5833 45.625 87.375 45.25C87.1667 44.8333 86.9792 44.5625 86.8125 44.4375C86.6875 44.3125 86.5625 44.1875 86.4375 44.0625C86.3542 43.8958 86.2917 43.7292 86.25 43.5625C86.2083 43.3958 86.125 43.25 86 43.125L84 43.25C83.0833 43.25 82.625 43.1042 82.625 42.8125L82.75 42.375C82.75 42.2917 82.7083 42.25 82.625 42.25L82.375 41.8125C82.375 41.6875 82.4167 41.625 82.5 41.625C82.5417 41.2917 82.8125 41.125 83.3125 41.125C83.8542 41.0833 84.3333 41 84.75 40.875C85.1667 40.7083 85.5 40.6667 85.75 40.75C85.9583 40.6667 86.1667 40.5417 86.375 40.375C86.5833 40.2083 86.8125 40.125 87.0625 40.125L88.125 40.25L89.125 40L90 40.125L90.4375 40C90.8542 40 91.25 40.25 91.625 40.75ZM115.938 50.625L117.938 50.25C118.271 50.25 118.479 50.2292 118.562 50.1875C118.688 50.1042 119.146 49.9583 119.938 49.75C120.729 49.5417 121.479 49.4375 122.188 49.4375H123.688C124.188 49.4375 124.562 49.5208 124.812 49.6875C125.062 49.8125 125.292 49.875 125.5 49.875C125.708 49.875 126.062 49.6875 126.562 49.3125C126.604 49.1458 126.625 48.9792 126.625 48.8125V48.25C126.625 47.2083 126.542 46.2917 126.375 45.5C126.25 44.6667 126.208 43.7708 126.25 42.8125C126.333 41.8542 126.271 41.2708 126.062 41.0625C125.896 40.8125 125.771 40.625 125.688 40.5C125.604 40.3333 125.583 40.1667 125.625 40C125.667 39.8333 125.604 39.6458 125.438 39.4375C125.312 39.1875 125.25 39.0208 125.25 38.9375C125.292 38.8125 125.271 38.7083 125.188 38.625C125.146 38.5417 125.083 38.5 125 38.5C124.958 38.4583 124.896 38.3958 124.812 38.3125C124.771 38.2292 124.75 38.1667 124.75 38.125C124.792 38.0833 124.771 38 124.688 37.875C124.646 37.75 124.542 37.6458 124.375 37.5625C124.25 37.4375 124.167 37.2708 124.125 37.0625C123.583 36.8125 123.125 36.3958 122.75 35.8125C122.542 35.7708 122.312 35.7708 122.062 35.8125C121.854 35.8125 121.646 35.7917 121.438 35.75C121.271 35.6667 121.125 35.6042 121 35.5625C120.875 35.4792 120.729 35.4375 120.562 35.4375L119.125 35.8125C119.083 35.8125 118.938 35.7708 118.688 35.6875C118.479 35.7292 118.375 35.875 118.375 36.125C118.375 36.3333 118.333 36.5 118.25 36.625C117.875 36.625 117.688 36.7708 117.688 37.0625C117.479 37.0625 117.333 37.125 117.25 37.25C117.167 37.375 117 37.3958 116.75 37.3125C116.583 37.6042 116.417 37.8958 116.25 38.1875C116.083 38.4792 115.854 38.7083 115.562 38.875C115.438 39.5417 115.375 40.1667 115.375 40.75C115.375 41.3333 115.5 41.75 115.75 42C116 42.25 116.125 42.5208 116.125 42.8125C116.125 43.0625 116.021 43.3958 115.812 43.8125C115.604 44.1875 115.354 44.375 115.062 44.375C114.771 44.375 114.562 44.2917 114.438 44.125C114.354 43.9583 114.271 43.7708 114.188 43.5625C114.146 43.3542 114.104 43.1458 114.062 42.9375C114.021 42.6875 113.875 42.4375 113.625 42.1875C113.75 42.1875 113.812 42.0833 113.812 41.875C113.812 41.6667 113.75 41.4792 113.625 41.3125C113.5 41.1458 113.438 40.6875 113.438 39.9375C113.438 39.1875 113.604 38.7083 113.938 38.5C113.896 38.5 113.875 38.4583 113.875 38.375L114 37.8125C113.958 37.8125 113.938 37.7708 113.938 37.6875L114.188 37.3125L114.125 37.1875C114.167 37.0208 114.25 36.9583 114.375 37C114.542 37 114.667 36.9583 114.75 36.875C114.833 36.75 115.021 36.3958 115.312 35.8125C115.604 35.7292 115.792 35.6042 115.875 35.4375C116 35.2292 116.167 35.0417 116.375 34.875C116.708 34.75 116.938 34.6042 117.062 34.4375C117.188 34.2292 117.333 34.0833 117.5 34C117.708 33.9167 117.917 33.8542 118.125 33.8125C118.375 33.7708 118.542 33.625 118.625 33.375L118.812 33.4375C119.021 33.4375 119.167 33.375 119.25 33.25C119.333 33.0833 119.562 33 119.938 33C120.354 33 120.583 32.9583 120.625 32.875C120.667 32.7917 120.833 32.75 121.125 32.75C121.417 32.75 121.854 32.8958 122.438 33.1875C123.062 33.4792 123.438 33.625 123.562 33.625H123.75C124.042 33.9583 124.438 34.1667 124.938 34.25C125.521 34.7083 126.083 35.1458 126.625 35.5625C127.208 35.9375 127.667 36.4375 128 37.0625C128.083 37.1458 128.104 37.2083 128.062 37.25C128.062 37.2917 128.125 37.3958 128.25 37.5625C128.375 37.6875 128.5 37.8542 128.625 38.0625C128.75 38.2708 128.875 38.4583 129 38.625C129.125 38.75 129.188 38.8125 129.188 38.8125C129.229 38.7708 129.25 38.9167 129.25 39.25L129.312 39.3125L129.5 39.4375C129.75 40.0625 129.958 41.0208 130.125 42.3125C130.292 43.6042 130.375 44.3542 130.375 44.5625C130.375 44.7292 130.396 44.875 130.438 45C130.521 45.0833 130.604 45.2917 130.688 45.625C130.771 45.9167 130.792 46.3542 130.75 46.9375C130.75 47.4792 130.771 47.9375 130.812 48.3125C130.896 48.6458 130.958 48.9375 131 49.1875C131.083 49.3958 131.125 49.625 131.125 49.875L130.938 50.8125L131.125 54.875L130.938 55.75L131 57.125L130.812 59.1875L131.25 61.1875L130.875 62.875L131.125 64.1875C131.125 64.3542 131.062 64.4792 130.938 64.5625C131.354 64.8958 131.854 65.0625 132.438 65.0625L134.375 64.6875H136.125C136.208 64.7708 136.25 64.8542 136.25 64.9375C136.25 65.0208 136.292 65.1042 136.375 65.1875C136.5 65.2708 136.604 65.3333 136.688 65.375C136.771 65.4167 136.812 65.5208 136.812 65.6875C136.812 65.8542 136.771 66 136.688 66.125C136.604 66.2083 136.604 66.3542 136.688 66.5625C136.438 66.6042 136.271 66.7083 136.188 66.875C136.146 67 136.042 67.1042 135.875 67.1875C135.75 67.2708 135.542 67.3125 135.25 67.3125C134.958 67.3125 134.604 67.4167 134.188 67.625C134.021 67.5833 133.812 67.5625 133.562 67.5625L132.812 67.375C132.729 67.375 132.667 67.4167 132.625 67.5C132.625 67.625 132.562 67.6875 132.438 67.6875L131.938 67.5C131.604 67.5 131.271 67.5833 130.938 67.75C130.646 67.9167 130.417 68 130.25 68C130.083 68 129.875 67.9583 129.625 67.875L128.812 68.0625C128.688 68.0625 128.521 67.9792 128.312 67.8125C128.104 67.6458 127.792 67.4167 127.375 67.125C127 66.8333 126.812 66.4375 126.812 65.9375L126.938 65.0625L126.688 64.375L126.938 60.25L126.875 58.5C126.875 58.2083 126.646 58.0625 126.188 58.0625C126.062 58.0625 125.917 58.125 125.75 58.25C125.625 58.375 125.479 58.4792 125.312 58.5625C125.188 58.6458 125.042 58.6875 124.875 58.6875C124.75 58.6875 124.604 58.7292 124.438 58.8125C124.271 58.8958 124.125 59 124 59.125C123.917 59.2083 123.75 59.2708 123.5 59.3125C123.167 59.7708 122.729 60 122.188 60H122C121.875 60.0417 121.771 60.125 121.688 60.25C121.604 60.375 121.479 60.5 121.312 60.625C121.188 60.7083 121 60.7917 120.75 60.875C120.542 60.9167 120.375 61.0625 120.25 61.3125L118.125 61.6875C117.917 61.6875 117.729 61.625 117.562 61.5C117.229 61.8333 116.896 62 116.562 62C114.896 62 113.792 61.7083 113.25 61.125C113.042 60.875 112.792 60.6458 112.5 60.4375L112.312 59.5625C112.229 59.3542 112.125 59.1875 112 59.0625C111.917 58.9375 111.833 58.75 111.75 58.5C111.708 58.25 111.708 57.9792 111.75 57.6875C111.792 57.3542 111.812 57.0417 111.812 56.75L111.688 56.0625L111.938 55.375V54.75C111.938 54.5833 111.979 54.4583 112.062 54.375C112.146 54.2917 112.229 54.1875 112.312 54.0625C112.396 53.9375 112.417 53.8125 112.375 53.6875C112.333 53.5208 112.438 53.3125 112.688 53.0625C112.938 52.8125 113.062 52.6458 113.062 52.5625C113.062 52.4375 113.125 52.2708 113.25 52.0625C113.417 51.8125 113.667 51.6042 114 51.4375C114.375 51.2708 114.667 51.0208 114.875 50.6875C115.25 50.6458 115.604 50.625 115.938 50.625ZM125.5 55.0625L126 55.1875C126.083 55.1875 126.146 55.1458 126.188 55.0625C126.271 54.9375 126.354 54.875 126.438 54.875L126 53.5625C125.5 53.4792 125 53.2917 124.5 53C124.042 52.7083 123.667 52.5625 123.375 52.5625L122.25 52.6875L120.625 52.625L118.125 53.0625L117.312 52.9375C116.979 52.9375 116.646 53 116.312 53.125C115.979 53.25 115.646 53.2708 115.312 53.1875C115.229 53.4375 115.042 53.7292 114.75 54.0625C114.458 54.3958 114.333 54.7917 114.375 55.25C114.458 55.7083 114.5 56.0833 114.5 56.375L114.375 56.9375C114.375 57.0208 114.396 57.1042 114.438 57.1875C114.521 57.2708 114.583 57.375 114.625 57.5C114.667 57.5833 114.667 57.6875 114.625 57.8125C114.625 57.9375 114.625 58.0833 114.625 58.25C114.625 58.4167 114.708 58.6042 114.875 58.8125C115.083 59.0208 115.229 59.2292 115.312 59.4375L115.375 59.375C115.458 59.375 115.521 59.4375 115.562 59.5625C115.646 59.6875 115.854 59.75 116.188 59.75C117.604 59.75 119.062 59.375 120.562 58.625L121.375 58.25C121.792 57.9583 122.229 57.75 122.688 57.625C123.188 57.5 123.521 57.2708 123.688 56.9375C124.354 55.8125 124.938 55.1875 125.438 55.0625H125.5Z" fill="white"/>
<path d="M206.281 62.2055C188.179 65.262 178.238 50.2896 174.443 44.9487C166.875 34.2795 147.135 26.8376 148.59 18.9844C150.046 11.1312 166.487 11.9159 166.487 11.9159" stroke="#BDBDBD" stroke-width="6" stroke-miterlimit="10" stroke-linejoin="round"/>
<path d="M205.148 62.2055C223.358 59.3705 217.428 43.9109 216.005 38.1839C213.17 26.7427 223.595 14.4092 215.477 8.11268C207.359 1.8162 193.936 7.4419 193.936 7.4419" stroke="#BDBDBD" stroke-width="6" stroke-miterlimit="10" stroke-linejoin="round"/>
<path d="M250.796 30.046C259.877 30.046 267.238 25.7253 267.238 20.3956C267.238 15.0658 259.877 10.7452 250.796 10.7452C241.716 10.7452 234.355 15.0658 234.355 20.3956C234.355 25.7253 241.716 30.046 250.796 30.046Z" fill="#878787"/>
<path d="M251.378 28.1855C259.363 28.1855 265.836 24.3862 265.836 19.6995C265.836 15.0128 259.363 11.2134 251.378 11.2134C243.394 11.2134 236.921 15.0128 236.921 19.6995C236.921 24.3862 243.394 28.1855 251.378 28.1855Z" fill="#BDBDBD"/>
<path d="M215.811 37.2916C214.852 41.5568 226.743 57.1366 208.297 61.4018C187.64 66.1858 179.931 48.3975 174.454 44.9487" stroke="#03A9F4" stroke-width="8" stroke-miterlimit="10"/>
<path d="M176.179 46.5371C176.179 46.5371 187.791 53.7258 201.407 50.4289C214.312 47.3028 216.318 39.0066 216.318 39.0066" stroke="#03A9F4" stroke-width="5" stroke-miterlimit="10"/>
<path opacity="0.22" d="M249.848 13.5612C244.198 14.3332 240.694 17.6428 241.999 20.9587C242.193 21.4523 242.495 21.9333 242.894 22.3889L243.627 23.2369C241.557 24.8252 239.875 25.4327 239.303 27.2742C240.77 28.1158 242.484 28.7866 244.36 29.2549C244.36 29.2486 244.371 29.2422 244.371 29.2359C244.371 29.2422 244.381 29.2486 244.381 29.2612C247.476 30.0333 251.001 30.2674 254.537 29.7865C254.936 29.7295 255.314 29.6599 255.691 29.5903L255.357 27.8184C255.357 27.8184 255.788 25.5719 255.885 25.4517C256.133 25.1669 257.136 25.0151 257.653 24.8379C258.904 24.3949 259.993 23.7937 260.834 23.0913C261.672 22.3819 262.249 21.5776 262.527 20.7299C262.806 19.8821 262.78 19.0095 262.451 18.168C261.135 14.8521 255.486 12.7891 249.848 13.5612Z" fill="#212121"/>
<path d="M206.14 60.769C216.479 74.6719 232.328 76.6399 244.036 75.4439C254.322 74.3871 267.938 68.9766 267.906 59.168C267.863 47.347 254.429 48.0938 247.152 40.519C238.085 31.0774 250.44 22.4079 250.44 22.4079" stroke="#03A9F4" stroke-width="8" stroke-miterlimit="10"/>
<path opacity="0.22" d="M243.142 24.5342C243.142 24.5342 245.19 23.9203 247.152 24.5784C250.257 25.6163 250.559 27.097 250.559 27.097C250.559 27.097 252.435 24.9075 253.438 24.3127C254.43 23.7115 247.433 20.7309 245.848 21.8763C244.263 23.0217 243.142 24.5342 243.142 24.5342Z" fill="#212121"/>
<path d="M171.004 8.88471C169.387 8.89104 167.964 9.34667 167.026 10.0364L165.689 9.41628C164.471 8.85307 162.681 9.36565 162.692 10.2769L162.735 13.5612C162.746 14.4724 164.546 14.9724 165.743 14.3965L167.047 13.7764C167.996 14.4661 169.441 14.9154 171.069 14.9091C173.904 14.8964 176.19 13.5359 176.168 11.8716C176.147 10.2073 173.84 8.87206 171.004 8.88471ZM198.281 7.733L195.424 4.91065C194.626 4.12596 192.642 4.23354 192.103 5.08151L191.51 6.01807C190.098 5.70799 188.481 5.75229 187.09 6.23956C186.51 6.44166 186.003 6.70893 185.599 7.02608C185.195 7.34324 184.901 7.70404 184.735 8.08785C184.569 8.47167 184.533 8.87095 184.63 9.26286C184.727 9.65477 184.955 10.0316 185.3 10.3718C185.644 10.7124 186.1 11.0098 186.64 11.2469C187.18 11.4841 187.795 11.6564 188.449 11.754C189.103 11.8515 189.783 11.8725 190.451 11.8155C191.119 11.7586 191.761 11.625 192.34 11.4223C193.742 10.935 194.583 10.1124 194.788 9.23276L196.448 9.36565C197.979 9.48589 199.079 8.51768 198.281 7.733Z" fill="#616161"/>
<path d="M253.33 24.3126C258.76 24.3126 263.162 21.7288 263.162 18.5414C263.162 15.354 258.76 12.7701 253.33 12.7701C247.899 12.7701 243.497 15.354 243.497 18.5414C243.497 21.7288 247.899 24.3126 253.33 24.3126Z" fill="#424242"/>
<path d="M253.826 22.5724C258.041 22.5724 261.459 20.5665 261.459 18.0921C261.459 15.6177 258.041 13.6118 253.826 13.6118C249.61 13.6118 246.193 15.6177 246.193 18.0921C246.193 20.5665 249.61 22.5724 253.826 22.5724Z" fill="#D1D1D1"/>
<path d="M186.68 9.56177C185.785 8.80873 185.958 7.40388 187.5 6.76474C189.041 6.1256 191.37 6.40404 192.265 7.24568C193.268 8.18224 190.648 7.3406 189.106 7.97974C187.564 8.61888 187.758 10.473 186.68 9.56177ZM167.964 10.916C168.352 10.0237 170.26 9.18209 172.093 9.44787C173.926 9.71365 175.09 10.9223 174.594 11.8715C174.045 12.9283 173.408 11.2134 171.576 10.954C169.754 10.6882 167.5 11.9918 167.964 10.916Z" fill="#757575"/>
</svg>
